<svg width="1275" height="345" viewBox="0 0 1275 345" fill="none" xmlns="http://www.w3.org/2000/svg">
<rect width="1275" height="345" fill="#121212"/>
<path d="M66.5476 259L30.77 123.985H55.3181L81.9554 238.891H86.1338L114.599 123.985H145.415L174.141 238.891H178.059L204.696 123.985H228.983L192.683 259H159.256L131.313 144.355H128.179L100.236 259H66.5476ZM245.59 259V175.432V123.985H266.744L264.393 166.814H268.833C271.096 156.542 274.143 148.011 277.973 141.221C281.803 134.257 286.504 129.121 292.075 125.813C297.82 122.331 304.349 120.59 311.661 120.59C320.366 120.59 327.504 122.767 333.076 127.119C338.647 131.298 342.738 136.782 345.35 143.572C348.135 150.362 349.528 157.848 349.528 166.031H353.706C355.622 156.281 358.581 148.011 362.586 141.221C366.59 134.431 371.552 129.295 377.471 125.813C383.391 122.331 390.18 120.59 397.841 120.59C404.805 120.59 410.898 121.983 416.121 124.769C421.344 127.554 425.784 131.733 429.44 137.304C433.096 142.701 435.795 149.404 437.536 157.413C439.277 165.421 440.147 174.649 440.147 185.095V259H416.382V188.228C416.382 177.956 415.425 169.426 413.51 162.636C411.595 155.672 408.722 150.536 404.892 147.228C401.236 143.746 396.535 142.005 390.79 142.005C384.348 142.005 378.516 144.268 373.293 148.795C368.244 153.147 364.065 159.328 360.758 167.336C357.624 175.171 355.535 184.137 354.49 194.235V259H331.248V190.579C331.248 179.784 330.29 170.818 328.375 163.68C326.46 156.542 323.587 151.145 319.757 147.489C316.101 143.833 311.313 142.005 305.394 142.005C298.43 142.005 292.423 144.442 287.374 149.317C282.325 154.018 278.234 160.372 275.1 168.381C272.141 176.39 270.226 185.356 269.355 195.279V259H245.59Z" fill="#FDFBFE"/>
<path d="M472.377 262.134C466.805 262.134 462.627 260.915 459.841 258.478C457.056 256.04 455.663 252.123 455.663 246.726C455.663 241.503 457.056 237.673 459.841 235.235C462.627 232.798 466.805 231.579 472.377 231.579C478.122 231.579 482.387 232.798 485.173 235.235C488.133 237.673 489.613 241.59 489.613 246.987C489.613 257.085 483.867 262.134 472.377 262.134ZM551.485 262.395C539.994 262.395 530.157 259.348 521.975 253.255C513.792 247.161 507.524 238.804 503.172 228.184C498.994 217.564 496.904 205.377 496.904 191.623C496.904 177.869 498.994 165.682 503.172 155.062C507.35 144.442 513.444 136.085 521.452 129.992C529.461 123.898 539.298 120.852 550.962 120.852C560.538 120.852 568.372 122.854 574.466 126.858C580.559 130.862 585.434 136.085 589.09 142.527C592.921 148.795 595.706 155.672 597.447 163.158H602.148C601.277 158.109 600.494 152.886 599.797 147.489C599.101 141.918 598.492 136.521 597.969 131.298C597.447 125.901 597.186 121.113 597.186 116.934V76.195H621.212V192.407V259H599.797L601.103 222.439H596.925C594.836 230.273 591.876 237.237 588.046 243.331C584.216 249.25 579.341 253.951 573.421 257.433C567.502 260.741 560.19 262.395 551.485 262.395ZM556.969 241.503C563.236 241.503 568.895 240.023 573.944 237.063C578.993 234.104 583.258 230.273 586.74 225.573C590.222 220.698 592.833 215.475 594.574 209.904C596.49 204.333 597.447 198.935 597.447 193.713V190.579C597.447 186.923 596.925 183.005 595.88 178.827C594.836 174.474 593.269 170.122 591.18 165.769C589.264 161.417 586.653 157.413 583.345 153.757C580.211 149.926 576.468 146.967 572.116 144.877C567.763 142.614 562.888 141.482 557.491 141.482C549.657 141.482 543.041 143.746 537.644 148.272C532.421 152.625 528.416 158.631 525.631 166.292C523.019 173.952 521.714 182.57 521.714 192.146C521.714 202.069 523.106 210.774 525.892 218.261C528.678 225.573 532.682 231.318 537.905 235.496C543.302 239.501 549.657 241.503 556.969 241.503ZM710.113 262.395C699.493 262.395 690.091 260.828 681.909 257.694C673.9 254.386 667.11 249.686 661.539 243.592C655.968 237.499 651.789 230.273 649.004 221.917C646.218 213.56 644.825 204.158 644.825 193.713C644.825 183.092 646.218 173.343 649.004 164.464C651.789 155.585 655.881 147.837 661.278 141.221C666.675 134.606 673.291 129.557 681.125 126.075C688.96 122.419 697.926 120.59 708.024 120.59C716.903 120.59 724.998 122.07 732.311 125.03C739.623 127.99 745.803 132.603 750.852 138.871C756.075 144.964 759.993 152.712 762.604 162.113C765.216 171.341 766.26 182.222 765.738 194.757L659.711 195.541V179.349L751.375 178.566L743.279 189.534C744.149 178.566 743.105 169.513 740.145 162.375C737.185 155.236 732.92 149.839 727.349 146.183C721.952 142.527 715.51 140.699 708.024 140.699C700.015 140.699 692.964 142.788 686.871 146.967C680.777 151.145 676.076 157.151 672.768 164.986C669.635 172.82 668.068 182.309 668.068 193.451C668.068 209.469 671.637 221.743 678.775 230.273C685.913 238.63 696.533 242.809 710.635 242.809C716.032 242.809 720.733 242.199 724.737 240.981C728.916 239.588 732.398 237.76 735.183 235.496C738.143 233.059 740.493 230.273 742.234 227.14C744.149 224.006 745.629 220.611 746.674 216.955L767.566 221.917C765.999 228.184 763.562 233.843 760.254 238.891C757.12 243.766 753.116 247.945 748.241 251.427C743.54 254.909 738.056 257.607 731.788 259.522C725.521 261.437 718.296 262.395 710.113 262.395ZM841.28 262.395C831.878 262.395 823.521 261.35 816.209 259.261C808.897 257.346 802.803 254.56 797.929 250.904C793.054 247.074 789.311 242.548 786.699 237.325C784.088 232.102 782.695 226.356 782.521 220.089L802.629 214.866C802.281 220.611 803.674 225.66 806.808 230.012C810.116 234.191 814.729 237.412 820.649 239.675C826.742 241.938 834.054 243.07 842.585 243.07C852.857 243.07 860.779 241.329 866.35 237.847C872.095 234.365 874.968 229.577 874.968 223.484C874.968 218.609 873.401 214.866 870.267 212.254C867.133 209.469 862.781 207.292 857.21 205.725C851.813 203.984 845.371 202.417 837.885 201.025C831.617 199.632 825.349 198.065 819.082 196.324C812.814 194.583 807.069 192.32 801.846 189.534C796.797 186.574 792.706 182.744 789.572 178.044C786.438 173.343 784.871 167.51 784.871 160.546C784.871 152.364 787.047 145.313 791.4 139.393C795.752 133.474 801.933 128.86 809.942 125.552C817.95 122.244 827.526 120.59 838.668 120.59C849.81 120.59 859.299 122.331 867.133 125.813C874.968 129.121 881.148 133.822 885.675 139.916C890.202 146.009 892.726 153.147 893.248 161.33L872.618 166.553C872.443 160.808 870.877 155.933 867.917 151.928C865.131 147.924 861.127 144.964 855.904 143.049C850.681 140.96 844.587 139.916 837.623 139.916C828.396 139.916 821.084 141.657 815.687 145.139C810.29 148.621 807.591 153.408 807.591 159.502C807.591 164.028 809.158 167.685 812.292 170.47C815.6 173.256 820.039 175.432 825.611 176.999C831.182 178.566 837.362 180.133 844.152 181.7C851.116 183.092 857.732 184.659 864 186.4C870.441 188.141 876.187 190.405 881.236 193.19C886.284 195.976 890.289 199.719 893.248 204.42C896.208 208.946 897.688 214.779 897.688 221.917C897.688 230.796 895.338 238.282 890.637 244.376C885.936 250.295 879.32 254.822 870.79 257.955C862.433 260.915 852.596 262.395 841.28 262.395ZM919.69 259V123.985H943.455V259H919.69ZM931.703 100.482C926.132 100.482 921.953 99.3503 919.168 97.087C916.382 94.8237 914.989 91.4287 914.989 86.9021C914.989 82.3755 916.382 78.9806 919.168 76.7173C921.953 74.454 926.045 73.3223 931.442 73.3223C937.013 73.3223 941.191 74.454 943.977 76.7173C946.762 78.9806 948.155 82.3755 948.155 86.9021C948.155 91.2546 946.762 94.6496 943.977 97.087C941.191 99.3503 937.1 100.482 931.703 100.482ZM1024.67 304.701C1010.4 304.701 998.644 303.57 989.417 301.306C980.364 299.217 973.661 295.909 969.308 291.383C964.956 287.03 962.78 281.546 962.78 274.93C962.78 266.922 965.913 260.306 972.181 255.083C978.449 249.86 987.937 246.378 1000.65 244.637V239.936C991.419 239.936 984.455 238.804 979.754 236.541C975.054 234.278 972.703 230.883 972.703 226.356C972.703 221.656 975.054 217.738 979.754 214.605C984.455 211.297 992.116 208.25 1002.74 205.464V200.502C992.116 200.328 984.02 197.194 978.449 191.101C972.877 184.833 970.092 176.738 970.092 166.814C970.092 157.935 972.442 150.275 977.143 143.833C982.018 137.217 988.982 132.168 998.035 128.686C1007.26 125.03 1018.23 123.202 1030.94 123.202H1094.66V143.311L1052.88 136.782V141.744C1062.97 143.833 1070.72 147.402 1076.12 152.451C1081.52 157.326 1084.21 163.941 1084.21 172.298C1084.21 179.784 1082.04 186.313 1077.69 191.884C1073.33 197.456 1066.89 201.808 1058.36 204.942C1050 207.902 1039.64 209.381 1027.28 209.381C1024.85 209.381 1022.23 209.294 1019.45 209.12C1016.84 208.772 1013.36 208.25 1009 207.553C1004.3 210.513 1000.47 213.212 997.513 215.649C994.727 218.086 993.334 220.263 993.334 222.178C993.334 224.093 994.64 225.66 997.251 226.879C1000.04 227.923 1003.34 228.62 1007.18 228.968C1011.01 229.316 1014.57 229.49 1017.88 229.49H1048.44C1051.92 229.49 1056.27 229.838 1061.49 230.535C1066.89 231.231 1072.2 232.711 1077.42 234.974C1082.82 237.237 1087.35 240.719 1091 245.42C1094.66 250.121 1096.49 256.65 1096.49 265.006C1096.49 274.408 1093.7 282.068 1088.13 287.988C1082.56 293.907 1074.46 298.173 1063.84 300.784C1053.22 303.396 1040.17 304.701 1024.67 304.701ZM1025.19 285.115C1036.86 285.115 1046.26 284.332 1053.4 282.765C1060.71 281.372 1066.02 279.109 1069.33 275.975C1072.81 272.841 1074.55 268.837 1074.55 263.962C1074.55 259.435 1073.33 255.953 1070.9 253.516C1068.63 250.904 1065.76 249.076 1062.28 248.032C1058.8 246.987 1055.31 246.378 1051.83 246.204C1048.35 245.855 1045.39 245.681 1042.95 245.681H1012.4C1002.3 247.945 995.336 251.078 991.506 255.083C987.676 259.087 985.761 263.353 985.761 267.879C985.761 272.754 987.502 276.41 990.984 278.847C994.466 281.285 999.167 282.939 1005.09 283.809C1011.18 284.68 1017.88 285.115 1025.19 285.115ZM1028.33 193.974C1039.3 193.974 1047.57 191.71 1053.14 187.184C1058.71 182.657 1061.49 176.564 1061.49 168.903C1061.49 160.721 1058.62 154.018 1052.88 148.795C1047.31 143.398 1038.86 140.699 1027.54 140.699C1016.58 140.699 1008.13 143.223 1002.21 148.272C996.468 153.321 993.595 159.85 993.595 167.859C993.595 173.082 994.901 177.695 997.513 181.7C1000.3 185.53 1004.22 188.577 1009.26 190.84C1014.49 192.929 1020.84 193.974 1028.33 193.974ZM1115.82 259V175.171V123.985H1137.24L1134.89 166.814H1139.33C1141.76 156.194 1144.98 147.489 1148.99 140.699C1153.17 133.909 1158.39 128.86 1164.66 125.552C1170.92 122.244 1178.24 120.59 1186.59 120.59C1201.57 120.59 1212.88 125.988 1220.54 136.782C1228.38 147.402 1232.29 163.332 1232.29 184.572V259H1208.27V186.661C1208.27 171.341 1205.83 160.024 1200.96 152.712C1196.26 145.4 1189.29 141.744 1180.06 141.744C1171.71 141.744 1164.57 144.355 1158.65 149.578C1152.91 154.801 1148.38 161.678 1145.07 170.209C1141.76 178.74 1139.93 187.967 1139.59 197.891V259H1115.82Z" fill="#D92848"/>
</svg>
