<svg width="1387" height="268" viewBox="0 0 1387 268" fill="none" xmlns="http://www.w3.org/2000/svg">
<path d="M41.787 215L0.528852 59.3033H28.8373L59.5551 191.811H64.3735L97.1993 59.3033H132.735L165.862 191.811H170.38L201.097 59.3033H229.105L187.244 215H148.697L116.473 82.7934H112.859L80.6358 215H41.787ZM248.256 215V118.631V59.3033H272.65L269.939 108.693H275.059C277.669 96.8472 281.183 87.0095 285.599 79.1795C290.016 71.1487 295.437 65.226 301.862 61.4114C308.487 57.396 316.016 55.3883 324.448 55.3883C334.487 55.3883 342.718 57.8979 349.143 62.9172C355.568 67.7356 360.286 74.0599 363.297 81.8899C366.509 89.7199 368.116 98.353 368.116 107.789H372.934C375.143 96.5461 378.556 87.0095 383.173 79.1795C387.791 71.3495 393.513 65.4268 400.339 61.4114C407.165 57.396 414.995 55.3883 423.829 55.3883C431.86 55.3883 438.887 56.9945 444.91 60.2068C450.933 63.4191 456.053 68.2376 460.269 74.6622C464.485 80.886 467.597 88.6157 469.605 97.8511C471.612 107.086 472.616 117.727 472.616 129.773V215H445.211V133.387C445.211 121.542 444.107 111.704 441.898 103.874C439.69 95.8434 436.377 89.9207 431.96 86.106C427.744 82.0907 422.323 80.083 415.698 80.083C408.27 80.083 401.544 82.693 395.521 87.913C389.698 92.9322 384.88 100.06 381.065 109.295C377.451 118.33 375.042 128.669 373.838 140.314V215H347.035V136.098C347.035 123.65 345.931 113.31 343.722 105.079C341.514 96.8472 338.201 90.6234 333.784 86.4072C329.568 82.191 324.047 80.083 317.221 80.083C309.19 80.083 302.263 82.8937 296.441 88.5153C290.619 93.9361 285.901 101.264 282.287 110.5C278.874 119.735 276.665 130.075 275.661 141.518V215H248.256Z" fill="#FDFBFE"/>
<path d="M509.783 218.614C503.358 218.614 498.54 217.208 495.327 214.398C492.115 211.587 490.509 207.07 490.509 200.846C490.509 194.823 492.115 190.406 495.327 187.595C498.54 184.784 503.358 183.379 509.783 183.379C516.408 183.379 521.327 184.784 524.539 187.595C527.952 190.406 529.659 194.923 529.659 201.147C529.659 212.792 523.034 218.614 509.783 218.614ZM601.009 218.915C587.758 218.915 576.415 215.402 566.979 208.375C557.542 201.348 550.315 191.711 545.295 179.464C540.477 167.217 538.068 153.163 538.068 137.302C538.068 121.441 540.477 107.388 545.295 95.1407C550.114 82.8937 557.141 73.2568 566.376 66.2299C575.612 59.2029 586.955 55.6895 600.407 55.6895C611.449 55.6895 620.484 57.9983 627.51 62.616C634.537 67.2337 640.159 73.2568 644.375 80.6853C648.792 87.913 652.004 95.8434 654.012 104.476H659.433C658.429 98.6541 657.526 92.6311 656.722 86.4072C655.919 79.9826 655.217 73.7587 654.614 67.7356C654.012 61.5118 653.711 55.9906 653.711 51.1722V4.19213H681.417V138.206V215H656.722L658.228 172.838H653.41C651.001 181.873 647.587 189.904 643.171 196.931C638.754 203.757 633.132 209.178 626.306 213.193C619.48 217.008 611.047 218.915 601.009 218.915ZM607.333 194.823C614.561 194.823 621.086 193.116 626.908 189.703C632.73 186.29 637.649 181.873 641.665 176.452C645.68 170.831 648.692 164.808 650.699 158.383C652.908 151.958 654.012 145.735 654.012 139.711V136.098C654.012 131.881 653.41 127.364 652.205 122.546C651.001 117.526 649.194 112.507 646.784 107.488C644.576 102.469 641.564 97.8511 637.75 93.6349C634.136 89.218 629.819 85.8049 624.8 83.3957C619.781 80.7857 614.159 79.4807 607.935 79.4807C598.901 79.4807 591.272 82.0907 585.048 87.3107C579.025 92.3299 574.407 99.2564 571.195 108.09C568.183 116.924 566.677 126.862 566.677 137.905C566.677 149.348 568.284 159.387 571.496 168.02C574.708 176.452 579.326 183.078 585.349 187.896C591.573 192.514 598.901 194.823 607.333 194.823ZM783.937 218.915C771.69 218.915 760.848 217.108 751.412 213.494C742.176 209.68 734.346 204.259 727.922 197.232C721.497 190.205 716.679 181.873 713.466 172.236C710.254 162.599 708.648 151.758 708.648 139.711C708.648 127.465 710.254 116.221 713.466 105.982C716.679 95.743 721.397 86.8087 727.621 79.1795C733.845 71.5503 741.474 65.728 750.508 61.7126C759.543 57.4964 769.883 55.3883 781.527 55.3883C791.767 55.3883 801.102 57.0949 809.535 60.508C817.967 63.921 825.094 69.2414 830.917 76.4691C836.94 83.496 841.457 92.4303 844.468 103.272C847.48 113.913 848.685 126.461 848.082 140.916L725.814 141.82V123.148L831.519 122.245L822.183 134.893C823.187 122.245 821.982 111.805 818.569 103.573C815.156 95.3414 810.237 89.1176 803.813 84.9014C797.589 80.6853 790.16 78.5772 781.527 78.5772C772.292 78.5772 764.161 80.9864 757.134 85.8049C750.107 90.6234 744.686 97.5499 740.871 106.585C737.258 115.619 735.451 126.561 735.451 139.41C735.451 157.881 739.566 172.035 747.798 181.873C756.03 191.51 768.276 196.328 784.539 196.328C790.763 196.328 796.183 195.626 800.801 194.22C805.62 192.614 809.635 190.506 812.847 187.896C816.26 185.085 818.971 181.873 820.978 178.259C823.187 174.645 824.893 170.73 826.098 166.514L850.19 172.236C848.383 179.464 845.573 185.989 841.758 191.811C838.144 197.433 833.527 202.251 827.905 206.267C822.484 210.282 816.16 213.394 808.932 215.602C801.705 217.811 793.373 218.915 783.937 218.915ZM935.196 218.915C924.354 218.915 914.717 217.71 906.285 215.301C897.853 213.093 890.826 209.88 885.204 205.664C879.583 201.247 875.266 196.027 872.255 190.004C869.243 183.981 867.637 177.356 867.436 170.128L890.625 164.105C890.223 170.73 891.83 176.553 895.443 181.572C899.258 186.39 904.578 190.105 911.405 192.715C918.432 195.325 926.864 196.63 936.702 196.63C948.547 196.63 957.682 194.622 964.107 190.607C970.732 186.591 974.045 181.07 974.045 174.043C974.045 168.422 972.238 164.105 968.624 161.093C965.01 157.881 959.991 155.371 953.566 153.565C947.342 151.557 939.914 149.75 931.281 148.144C924.053 146.538 916.825 144.731 909.598 142.723C902.37 140.715 895.745 138.105 889.722 134.893C883.899 131.48 879.181 127.063 875.567 121.642C871.953 116.221 870.147 109.496 870.147 101.465C870.147 92.0287 872.656 83.8976 877.675 77.0714C882.695 70.2453 889.822 64.9249 899.057 61.1103C908.293 57.2956 919.335 55.3883 932.184 55.3883C945.034 55.3883 955.975 57.396 965.01 61.4114C974.045 65.226 981.172 70.6468 986.392 77.6737C991.612 84.7007 994.523 92.9322 995.125 102.368L971.334 108.391C971.134 101.766 969.327 96.1445 965.914 91.5268C962.701 86.9091 958.084 83.496 952.06 81.2876C946.037 78.8783 939.01 77.6737 930.98 77.6737C920.339 77.6737 911.907 79.6814 905.683 83.6968C899.459 87.7122 896.347 93.2334 896.347 100.26C896.347 105.48 898.154 109.696 901.768 112.909C905.582 116.121 910.702 118.631 917.127 120.438C923.551 122.245 930.679 124.051 938.509 125.858C946.539 127.465 954.169 129.271 961.396 131.279C968.825 133.287 975.45 135.897 981.272 139.109C987.095 142.321 991.712 146.638 995.125 152.059C998.539 157.279 1000.25 164.005 1000.25 172.236C1000.25 182.475 997.535 191.108 992.114 198.135C986.693 204.962 979.064 210.182 969.226 213.795C959.589 217.208 948.246 218.915 935.196 218.915ZM1025.62 215V59.3033H1053.02V215H1025.62ZM1039.47 32.1995C1033.05 32.1995 1028.23 30.8945 1025.02 28.2845C1021.8 25.6745 1020.2 21.7595 1020.2 16.5394C1020.2 11.3194 1021.8 7.40444 1025.02 4.79445C1028.23 2.18444 1032.95 0.879439 1039.17 0.879439C1045.59 0.879439 1050.41 2.18444 1053.62 4.79445C1056.84 7.40444 1058.44 11.3194 1058.44 16.5394C1058.44 21.5587 1056.84 25.4737 1053.62 28.2845C1050.41 30.8945 1045.69 32.1995 1039.47 32.1995ZM1146.68 267.702C1130.22 267.702 1116.67 266.397 1106.03 263.787C1095.59 261.378 1087.86 257.563 1082.84 252.343C1077.82 247.324 1075.31 241 1075.31 233.37C1075.31 224.135 1078.92 216.506 1086.15 210.483C1093.38 204.46 1104.32 200.444 1118.98 198.437V193.016C1108.33 193.016 1100.3 191.711 1094.88 189.101C1089.46 186.491 1086.75 182.576 1086.75 177.356C1086.75 171.935 1089.46 167.418 1094.88 163.804C1100.3 159.989 1109.14 156.476 1121.38 153.263V147.541C1109.14 147.341 1099.8 143.727 1093.38 136.7C1086.95 129.472 1083.74 120.136 1083.74 108.693C1083.74 98.4534 1086.45 89.6195 1091.87 82.191C1097.49 74.5618 1105.52 68.7395 1115.96 64.7241C1126.6 60.5079 1139.25 58.3999 1153.91 58.3999H1227.39V81.5887L1179.21 74.0599V79.7818C1190.85 82.191 1199.78 86.3068 1206.01 92.1291C1212.23 97.7507 1215.34 105.38 1215.34 115.017C1215.34 123.65 1212.83 131.179 1207.82 137.603C1202.8 144.028 1195.37 149.047 1185.53 152.661C1175.89 156.074 1163.95 157.781 1149.69 157.781C1146.88 157.781 1143.87 157.68 1140.66 157.48C1137.65 157.078 1133.63 156.476 1128.61 155.673C1123.19 159.086 1118.77 162.198 1115.36 165.008C1112.15 167.819 1110.54 170.329 1110.54 172.537C1110.54 174.746 1112.05 176.553 1115.06 177.958C1118.27 179.163 1122.09 179.966 1126.5 180.367C1130.92 180.769 1135.04 180.97 1138.85 180.97H1174.09C1178.1 180.97 1183.12 181.371 1189.14 182.174C1195.37 182.977 1201.49 184.684 1207.51 187.294C1213.74 189.904 1218.96 193.919 1223.17 199.34C1227.39 204.761 1229.5 212.29 1229.5 221.927C1229.5 232.768 1226.29 241.602 1219.86 248.428C1213.44 255.254 1204.1 260.173 1191.85 263.185C1179.61 266.196 1164.55 267.702 1146.68 267.702ZM1147.28 245.115C1160.74 245.115 1171.58 244.212 1179.81 242.405C1188.24 240.799 1194.36 238.189 1198.18 234.575C1202.19 230.961 1204.2 226.343 1204.2 220.722C1204.2 215.502 1202.8 211.487 1199.99 208.676C1197.38 205.664 1194.06 203.556 1190.05 202.352C1186.03 201.147 1182.02 200.444 1178 200.243C1173.99 199.842 1170.57 199.641 1167.76 199.641H1132.53C1120.88 202.251 1112.85 205.865 1108.43 210.483C1104.02 215.1 1101.81 220.019 1101.81 225.239C1101.81 230.861 1103.82 235.077 1107.83 237.888C1111.85 240.698 1117.27 242.606 1124.09 243.61C1131.12 244.613 1138.85 245.115 1147.28 245.115ZM1150.9 140.013C1163.55 140.013 1173.08 137.403 1179.51 132.183C1185.93 126.963 1189.14 119.936 1189.14 111.102C1189.14 101.666 1185.83 93.9361 1179.21 87.913C1172.78 81.6891 1163.04 78.5772 1149.99 78.5772C1137.35 78.5772 1127.61 81.4884 1120.78 87.3107C1114.16 93.133 1110.84 100.662 1110.84 109.897C1110.84 115.92 1112.35 121.241 1115.36 125.858C1118.57 130.275 1123.09 133.789 1128.91 136.399C1134.94 138.808 1142.26 140.013 1150.9 140.013ZM1251.79 215V118.33V59.3033H1276.49L1273.78 108.693H1278.9C1281.71 96.4457 1285.42 86.4072 1290.04 78.5772C1294.86 70.7472 1300.88 64.9249 1308.11 61.1103C1315.34 57.2956 1323.77 55.3883 1333.41 55.3883C1350.67 55.3883 1363.72 61.6122 1372.56 74.0599C1381.59 86.3068 1386.11 104.677 1386.11 129.171V215H1358.4V131.58C1358.4 113.913 1355.59 100.863 1349.97 92.4303C1344.55 83.998 1336.52 79.7818 1325.88 79.7818C1316.24 79.7818 1308.01 82.7933 1301.18 88.8164C1294.56 94.8395 1289.34 102.77 1285.52 112.608C1281.71 122.445 1279.6 133.086 1279.2 144.53V215H1251.79Z" fill="#D92848"/>
</svg>
