<svg width="1632" height="315" viewBox="0 0 1632 315" fill="none" xmlns="http://www.w3.org/2000/svg">
<path d="M48.9612 252.538L0.326172 69.0026H33.6962L69.9062 225.203H75.5862L114.281 69.0026H156.171L195.221 225.203H200.546L236.756 69.0026H269.771L220.426 252.538H174.986L137.001 96.6926H132.741L94.7562 252.538H48.9612ZM292.347 252.538V138.938V69.0026H321.102L317.907 127.223H323.942C327.019 113.259 331.16 101.663 336.367 92.4326C341.574 82.9659 347.964 75.9843 355.537 71.4876C363.347 66.7543 372.222 64.3876 382.162 64.3876C393.995 64.3876 403.699 67.3459 411.272 73.2626C418.845 78.9426 424.407 86.3976 427.957 95.6276C431.744 104.858 433.637 115.034 433.637 126.158H439.317C441.92 112.904 445.944 101.663 451.387 92.4326C456.83 83.2026 463.575 76.2209 471.622 71.4876C479.669 66.7543 488.899 64.3876 499.312 64.3876C508.779 64.3876 517.062 66.2809 524.162 70.0676C531.262 73.8543 537.297 79.5343 542.267 87.1076C547.237 94.4443 550.905 103.556 553.272 114.443C555.639 125.329 556.822 137.873 556.822 152.073V252.538H524.517V156.333C524.517 142.369 523.215 130.773 520.612 121.543C518.009 112.076 514.104 105.094 508.897 100.598C503.927 95.8643 497.537 93.4976 489.727 93.4976C480.97 93.4976 473.042 96.5743 465.942 102.728C459.079 108.644 453.399 117.046 448.902 127.933C444.642 138.583 441.802 150.771 440.382 164.498V252.538H408.787V159.528C408.787 144.854 407.485 132.666 404.882 122.963C402.279 113.259 398.374 105.923 393.167 100.953C388.197 95.9826 381.689 93.4976 373.642 93.4976C364.175 93.4976 356.01 96.8109 349.147 103.438C342.284 109.828 336.722 118.466 332.462 129.353C328.439 140.239 325.835 152.428 324.652 165.918V252.538H292.347Z" fill="#D92848"/>
<path d="M598.901 256.798C591.327 256.798 585.647 255.141 581.861 251.828C578.074 248.514 576.181 243.189 576.181 235.853C576.181 228.753 578.074 223.546 581.861 220.233C585.647 216.919 591.327 215.263 598.901 215.263C606.711 215.263 612.509 216.919 616.296 220.233C620.319 223.546 622.331 228.871 622.331 236.208C622.331 249.934 614.521 256.798 598.901 256.798ZM706.438 257.153C690.818 257.153 677.446 253.011 666.323 244.728C655.2 236.444 646.68 225.084 640.763 210.648C635.083 196.211 632.243 179.644 632.243 160.948C632.243 142.251 635.083 125.684 640.763 111.248C646.443 96.8109 654.726 85.4509 665.613 77.1676C676.5 68.8843 689.871 64.7426 705.728 64.7426C718.745 64.7426 729.395 67.4642 737.678 72.9076C745.961 78.3509 752.588 85.4509 757.558 94.2076C762.765 102.728 766.551 112.076 768.918 122.253H775.308C774.125 115.389 773.06 108.289 772.113 100.953C771.166 93.3793 770.338 86.0426 769.628 78.9426C768.918 71.6059 768.563 65.0976 768.563 59.4176V4.03758H801.223V162.013V252.538H772.113L773.888 202.838H768.208C765.368 213.488 761.345 222.954 756.138 231.238C750.931 239.284 744.305 245.674 736.258 250.408C728.211 254.904 718.271 257.153 706.438 257.153ZM713.893 228.753C722.413 228.753 730.105 226.741 736.968 222.718C743.831 218.694 749.63 213.488 754.363 207.098C759.096 200.471 762.646 193.371 765.013 185.798C767.616 178.224 768.918 170.888 768.918 163.788V159.528C768.918 154.558 768.208 149.233 766.788 143.553C765.368 137.636 763.238 131.719 760.398 125.803C757.795 119.886 754.245 114.443 749.748 109.473C745.488 104.266 740.4 100.243 734.483 97.4026C728.566 94.3259 721.94 92.7876 714.603 92.7876C703.953 92.7876 694.96 95.8643 687.623 102.018C680.523 107.934 675.08 116.099 671.293 126.513C667.743 136.926 665.968 148.641 665.968 161.658C665.968 175.148 667.861 186.981 671.648 197.158C675.435 207.098 680.878 214.908 687.978 220.588C695.315 226.031 703.953 228.753 713.893 228.753ZM922.073 257.153C907.636 257.153 894.856 255.023 883.733 250.763C872.846 246.266 863.616 239.876 856.043 231.593C848.469 223.309 842.789 213.488 839.003 202.128C835.216 190.768 833.323 177.988 833.323 163.788C833.323 149.351 835.216 136.098 839.003 124.028C842.789 111.958 848.351 101.426 855.688 92.4326C863.024 83.4393 872.018 76.5759 882.668 71.8426C893.318 66.8726 905.506 64.3876 919.233 64.3876C931.303 64.3876 942.308 66.3993 952.248 70.4226C962.188 74.4459 970.589 80.7176 977.453 89.2376C984.553 97.5209 989.878 108.053 993.428 120.833C996.978 133.376 998.398 148.168 997.688 165.208L853.558 166.273V144.263L978.163 143.198L967.158 158.108C968.341 143.198 966.921 130.891 962.898 121.188C958.874 111.484 953.076 104.148 945.503 99.1776C938.166 94.2076 929.409 91.7226 919.233 91.7226C908.346 91.7226 898.761 94.5626 890.478 100.243C882.194 105.923 875.804 114.088 871.308 124.738C867.048 135.388 864.918 148.286 864.918 163.433C864.918 185.206 869.769 201.891 879.473 213.488C889.176 224.848 903.613 230.528 922.783 230.528C930.119 230.528 936.509 229.699 941.953 228.043C947.633 226.149 952.366 223.664 956.153 220.588C960.176 217.274 963.371 213.488 965.738 209.228C968.341 204.968 970.353 200.353 971.773 195.383L1000.17 202.128C998.043 210.648 994.729 218.339 990.233 225.203C985.973 231.829 980.529 237.509 973.903 242.243C967.513 246.976 960.058 250.644 951.538 253.248C943.018 255.851 933.196 257.153 922.073 257.153ZM1100.38 257.153C1087.6 257.153 1076.24 255.733 1066.3 252.893C1056.36 250.289 1048.07 246.503 1041.45 241.533C1034.82 236.326 1029.73 230.173 1026.18 223.073C1022.63 215.973 1020.74 208.163 1020.5 199.643L1047.84 192.543C1047.36 200.353 1049.26 207.216 1053.52 213.133C1058.01 218.813 1064.29 223.191 1072.33 226.268C1080.62 229.344 1090.56 230.883 1102.15 230.883C1116.12 230.883 1126.88 228.516 1134.46 223.783C1142.27 219.049 1146.17 212.541 1146.17 204.258C1146.17 197.631 1144.04 192.543 1139.78 188.993C1135.52 185.206 1129.61 182.248 1122.03 180.118C1114.7 177.751 1105.94 175.621 1095.76 173.728C1087.24 171.834 1078.72 169.704 1070.2 167.338C1061.68 164.971 1053.87 161.894 1046.77 158.108C1039.91 154.084 1034.35 148.878 1030.09 142.488C1025.83 136.098 1023.7 128.169 1023.7 118.703C1023.7 107.579 1026.66 97.9943 1032.57 89.9476C1038.49 81.9009 1046.89 75.6293 1057.78 71.1326C1068.66 66.6359 1081.68 64.3876 1096.83 64.3876C1111.97 64.3876 1124.87 66.7543 1135.52 71.4876C1146.17 75.9843 1154.57 82.3743 1160.73 90.6576C1166.88 98.9409 1170.31 108.644 1171.02 119.768L1142.98 126.868C1142.74 119.058 1140.61 112.431 1136.59 106.988C1132.8 101.544 1127.36 97.5209 1120.26 94.9176C1113.16 92.0776 1104.87 90.6576 1095.41 90.6576C1082.86 90.6576 1072.92 93.0243 1065.59 97.7576C1058.25 102.491 1054.58 108.999 1054.58 117.283C1054.58 123.436 1056.71 128.406 1060.97 132.193C1065.47 135.979 1071.5 138.938 1079.08 141.068C1086.65 143.198 1095.05 145.328 1104.28 147.458C1113.75 149.351 1122.74 151.481 1131.26 153.848C1140.02 156.214 1147.83 159.291 1154.69 163.078C1161.56 166.864 1167 171.953 1171.02 178.343C1175.05 184.496 1177.06 192.424 1177.06 202.128C1177.06 214.198 1173.86 224.374 1167.47 232.658C1161.08 240.704 1152.09 246.858 1140.49 251.118C1129.13 255.141 1115.76 257.153 1100.38 257.153ZM1206.97 252.538V69.0026H1239.27V252.538H1206.97ZM1223.3 37.0526C1215.72 37.0526 1210.04 35.5143 1206.26 32.4376C1202.47 29.3609 1200.58 24.7459 1200.58 18.5926C1200.58 12.4392 1202.47 7.82425 1206.26 4.74759C1210.04 1.67092 1215.6 0.132589 1222.94 0.132589C1230.51 0.132589 1236.19 1.67092 1239.98 4.74759C1243.77 7.82425 1245.66 12.4392 1245.66 18.5926C1245.66 24.5093 1243.77 29.1243 1239.98 32.4376C1236.19 35.5143 1230.63 37.0526 1223.3 37.0526ZM1349.68 314.663C1330.27 314.663 1314.29 313.124 1301.75 310.048C1289.44 307.208 1280.33 302.711 1274.42 296.558C1268.5 290.641 1265.54 283.186 1265.54 274.193C1265.54 263.306 1269.8 254.313 1278.32 247.213C1286.84 240.113 1299.74 235.379 1317.02 233.013V226.623C1304.47 226.623 1295.01 225.084 1288.62 222.008C1282.23 218.931 1279.03 214.316 1279.03 208.163C1279.03 201.773 1282.23 196.448 1288.62 192.188C1295.01 187.691 1305.42 183.549 1319.86 179.763V173.018C1305.42 172.781 1294.41 168.521 1286.84 160.238C1279.27 151.718 1275.48 140.713 1275.48 127.223C1275.48 115.153 1278.68 104.739 1285.07 95.9826C1291.69 86.9893 1301.16 80.1259 1313.47 75.3926C1326.01 70.4226 1340.92 67.9376 1358.2 67.9376H1444.82V95.2726L1388.02 86.3976V93.1426C1401.74 95.9826 1412.27 100.834 1419.61 107.698C1426.95 114.324 1430.62 123.318 1430.62 134.678C1430.62 144.854 1427.66 153.729 1421.74 161.303C1415.82 168.876 1407.07 174.793 1395.47 179.053C1384.11 183.076 1370.03 185.088 1353.23 185.088C1349.91 185.088 1346.36 184.969 1342.58 184.733C1339.03 184.259 1334.29 183.549 1328.38 182.603C1321.99 186.626 1316.78 190.294 1312.76 193.608C1308.97 196.921 1307.08 199.879 1307.08 202.483C1307.08 205.086 1308.85 207.216 1312.4 208.873C1316.19 210.293 1320.68 211.239 1325.89 211.713C1331.1 212.186 1335.95 212.423 1340.45 212.423H1381.98C1386.71 212.423 1392.63 212.896 1399.73 213.843C1407.07 214.789 1414.29 216.801 1421.39 219.878C1428.72 222.954 1434.88 227.688 1439.85 234.078C1444.82 240.468 1447.3 249.343 1447.3 260.703C1447.3 273.483 1443.51 283.896 1435.94 291.943C1428.37 299.989 1417.36 305.788 1402.93 309.338C1388.49 312.888 1370.74 314.663 1349.68 314.663ZM1350.39 288.038C1366.24 288.038 1379.02 286.973 1388.73 284.843C1398.67 282.949 1405.88 279.873 1410.38 275.613C1415.11 271.353 1417.48 265.909 1417.48 259.283C1417.48 253.129 1415.82 248.396 1412.51 245.083C1409.43 241.533 1405.53 239.048 1400.8 237.628C1396.06 236.208 1391.33 235.379 1386.6 235.143C1381.86 234.669 1377.84 234.433 1374.53 234.433H1332.99C1319.26 237.509 1309.8 241.769 1304.59 247.213C1299.38 252.656 1296.78 258.454 1296.78 264.608C1296.78 271.234 1299.15 276.204 1303.88 279.518C1308.61 282.831 1315 285.079 1323.05 286.263C1331.33 287.446 1340.45 288.038 1350.39 288.038ZM1354.65 164.143C1369.56 164.143 1380.8 161.066 1388.37 154.913C1395.94 148.759 1399.73 140.476 1399.73 130.063C1399.73 118.939 1395.83 109.828 1388.02 102.728C1380.44 95.3909 1368.96 91.7226 1353.58 91.7226C1338.67 91.7226 1327.19 95.1543 1319.15 102.018C1311.34 108.881 1307.43 117.756 1307.43 128.643C1307.43 135.743 1309.21 142.014 1312.76 147.458C1316.54 152.664 1321.87 156.806 1328.73 159.883C1335.83 162.723 1344.47 164.143 1354.65 164.143ZM1473.58 252.538V138.583V69.0026H1502.69L1499.5 127.223H1505.53C1508.85 112.786 1513.22 100.953 1518.67 91.7226C1524.35 82.4926 1531.45 75.6293 1539.97 71.1326C1548.49 66.6359 1558.43 64.3876 1569.79 64.3876C1590.14 64.3876 1605.52 71.7243 1615.94 86.3976C1626.59 100.834 1631.91 122.489 1631.91 151.363V252.538H1599.25V154.203C1599.25 133.376 1595.94 117.993 1589.31 108.053C1582.92 98.1126 1573.46 93.1426 1560.91 93.1426C1549.55 93.1426 1539.85 96.6926 1531.8 103.793C1523.99 110.893 1517.84 120.241 1513.34 131.838C1508.85 143.434 1506.36 155.978 1505.89 169.468V252.538H1473.58Z" fill="#D92848"/>
</svg>
