<svg width="1169" height="1101" viewBox="0 0 1169 1101" fill="none" xmlns="http://www.w3.org/2000/svg">
<g opacity="0.5">
<path d="M601.469 -428.34L598.848 -401.268C579.867 -205.26 778.095 -60.7371 958.903 -138.761L984.888 -149.974C1154.84 -223.311 1340.89 -86.614 1321.7 97.4844L1314.99 161.867C1301.11 295.069 1422.1 402.556 1552.74 373.072V373.072" stroke="#D92848" stroke-width="0.653416"/>
<path d="M590.77 -413.798L588.148 -386.726C569.167 -190.718 767.396 -46.1951 948.204 -124.219L974.188 -135.432C1144.14 -208.769 1330.19 -72.072 1311 112.026L1304.29 176.409C1290.41 309.611 1411.4 417.098 1542.04 387.614V387.614" stroke="#D92848" stroke-width="0.653416"/>
<path d="M580.075 -399.254L577.454 -372.182C558.473 -176.174 756.701 -31.6511 937.509 -109.675L963.494 -120.888C1133.44 -194.225 1319.5 -57.5281 1300.31 126.57L1293.6 190.953C1279.71 324.155 1400.71 431.642 1531.35 402.158V402.158" stroke="#D92848" stroke-width="0.653416"/>
<path d="M569.376 -384.712L566.754 -357.64C547.774 -161.632 746.002 -17.1091 926.81 -95.1328L952.794 -106.346C1122.74 -179.683 1308.8 -42.9861 1289.61 141.112L1282.9 205.495C1269.01 338.697 1390.01 446.184 1520.65 416.7V416.7" stroke="#D92848" stroke-width="0.653416"/>
<path d="M558.682 -370.169L556.06 -343.097C537.079 -147.089 735.308 -2.56618 916.116 -80.5898L942.1 -91.8028C1112.05 -165.14 1298.11 -28.4431 1278.92 155.655L1272.2 220.038C1258.32 353.24 1379.32 460.727 1509.95 431.242V431.242" stroke="#D92848" stroke-width="0.653416"/>
<path d="M547.982 -355.626L545.36 -328.554C526.38 -132.546 724.608 11.9768 905.416 -66.0468L931.4 -77.2598C1101.35 -150.597 1287.41 -13.9001 1268.22 170.198L1261.51 234.581C1247.62 367.783 1368.62 475.27 1499.25 445.785V445.785" stroke="#D92848" stroke-width="0.653416"/>
<path d="M537.288 -341.08L534.666 -314.008C515.685 -118.001 713.914 26.5227 894.722 -51.5009L920.706 -62.7139C1090.65 -136.051 1276.71 0.64576 1257.52 184.744L1250.81 249.126C1236.93 382.329 1357.92 489.816 1488.56 460.331V460.331" stroke="#D92848" stroke-width="0.653416"/>
<path d="M526.594 -326.54L523.972 -299.468C504.991 -103.46 703.22 41.0627 884.028 -36.9609L910.012 -48.1739C1079.96 -121.511 1266.02 15.1858 1246.83 199.284L1240.12 263.666C1226.23 396.869 1347.23 504.356 1477.87 474.871V474.871" stroke="#D92848" stroke-width="0.653416"/>
<path d="M515.894 -311.994L513.272 -284.922C494.291 -88.9146 692.52 55.6086 873.328 -22.415L899.312 -33.628C1069.26 -106.965 1255.32 29.7317 1236.13 213.83L1229.42 278.212C1215.53 411.415 1336.53 518.902 1467.17 489.417V489.417" stroke="#D92848" stroke-width="0.653416"/>
<path d="M505.2 -297.452L502.578 -270.379C483.597 -74.3716 681.826 70.1516 862.634 -7.87201L888.618 -19.085C1058.57 -92.4221 1244.62 44.2747 1225.43 228.373L1218.72 292.755C1204.84 425.958 1325.83 533.445 1456.47 503.96V503.96" stroke="#D92848" stroke-width="0.653416"/>
<path d="M494.5 -282.91L491.878 -255.837C472.898 -59.8296 671.126 84.6936 851.934 6.66998L877.919 -4.54303C1047.87 -77.8801 1233.92 58.8167 1214.73 242.915L1208.02 307.297C1194.14 440.5 1315.13 547.987 1445.77 518.502V518.502" stroke="#D92848" stroke-width="0.653416"/>
<path d="M483.806 -268.367L481.184 -241.294C462.203 -45.2867 660.432 99.2366 841.24 21.213L867.224 9.99994C1037.17 -63.3371 1223.23 73.3596 1204.04 257.458L1197.33 321.84C1183.44 455.043 1304.44 562.53 1435.08 533.045V533.045" stroke="#D92848" stroke-width="0.653416"/>
<path d="M473.111 -253.823L470.49 -226.75C451.509 -30.7427 649.737 113.781 830.545 35.7569L856.53 24.5439C1026.48 -48.7931 1212.54 87.9036 1193.35 272.002L1186.63 336.384C1172.75 469.587 1293.75 577.074 1424.38 547.589V547.589" stroke="#D92848" stroke-width="0.653416"/>
<path d="M462.412 -239.281L459.791 -212.208C440.81 -16.2007 639.038 128.322 819.846 50.2989L845.831 39.0859C1015.78 -34.2512 1201.84 102.446 1182.65 286.544L1175.94 350.926C1162.05 484.129 1283.05 591.616 1413.68 562.131V562.131" stroke="#D92848" stroke-width="0.653416"/>
<path d="M451.718 -224.738L449.096 -197.665C430.115 -1.65776 628.344 142.865 809.152 64.8419L835.136 53.6288C1005.08 -19.7082 1191.14 116.989 1171.95 301.087L1165.24 365.469C1151.36 498.672 1272.35 606.159 1402.99 576.674V576.674" stroke="#D92848" stroke-width="0.653416"/>
<path d="M441.276 -210.538L438.654 -183.466C419.673 12.5415 617.902 157.065 798.71 79.0411L824.694 67.8281C994.642 -5.50896 1180.7 131.188 1161.51 315.286L1154.8 379.668C1140.91 512.871 1261.91 620.358 1392.55 590.873V590.873" stroke="#D92848" stroke-width="0.653416"/>
<path d="M430.828 -196.339L428.207 -169.267C409.226 26.7407 607.454 171.264 788.262 93.2403L814.247 82.0273C984.194 8.69025 1170.25 145.387 1151.06 329.485L1144.35 393.868C1130.47 527.07 1251.46 634.557 1382.1 605.073V605.073" stroke="#D92848" stroke-width="0.653416"/>
<path d="M420.386 -182.14L417.765 -155.068C398.784 40.9399 597.012 185.463 777.82 107.44L803.805 96.2265C973.752 22.8895 1159.81 159.586 1140.62 343.685L1133.91 408.067C1120.02 541.269 1241.02 648.756 1371.66 619.272V619.272" stroke="#D92848" stroke-width="0.653416"/>
<path d="M409.944 -167.941L407.323 -140.868C388.342 55.1391 586.57 199.662 767.378 121.639L793.363 110.426C963.31 37.0887 1149.37 173.785 1130.18 357.884L1123.47 422.266C1109.58 555.468 1230.58 662.956 1361.22 633.471V633.471" stroke="#D92848" stroke-width="0.653416"/>
<path d="M399.503 -153.744L396.881 -126.672C377.9 69.3354 576.128 213.859 756.936 135.835L782.921 124.622C952.869 51.285 1138.93 187.982 1119.74 372.08L1113.03 436.462C1099.14 569.665 1220.14 677.152 1350.77 647.667V647.667" stroke="#D92848" stroke-width="0.653416"/>
<path d="M389.055 -139.545L386.434 -112.473C367.453 83.5346 565.681 228.058 746.489 150.034L772.474 138.821C942.421 65.4842 1128.48 202.181 1109.29 386.279L1102.58 450.662C1088.69 583.864 1209.69 691.351 1340.33 661.866V661.866" stroke="#D92848" stroke-width="0.653416"/>
<path d="M378.613 -125.346L375.992 -98.2737C357.011 97.7338 555.239 242.257 736.047 164.233L762.032 153.02C931.979 79.6834 1118.04 216.38 1098.85 400.479L1092.14 464.861C1078.25 598.063 1199.25 705.55 1329.89 676.066V676.066" stroke="#D92848" stroke-width="0.653416"/>
<path d="M368.171 -111.147L365.549 -84.0745C346.569 111.933 544.797 256.456 725.605 178.433L751.589 167.22C921.537 93.8826 1107.6 230.579 1088.41 414.678L1081.69 479.06C1067.81 612.262 1188.81 719.749 1319.44 690.265V690.265" stroke="#D92848" stroke-width="0.653416"/>
<path d="M357.729 -96.9476L355.107 -69.8752C336.127 126.132 534.355 270.656 715.163 192.632L741.148 181.419C911.095 108.082 1097.15 244.779 1077.96 428.877L1071.25 493.259C1057.37 626.462 1178.36 733.949 1309 704.464V704.464" stroke="#D92848" stroke-width="0.653416"/>
<path d="M347.282 -82.7494L344.66 -55.677C325.679 140.331 523.908 284.854 704.716 206.83L730.7 195.617C900.648 122.28 1086.71 258.977 1067.52 443.075L1060.8 507.457C1046.92 640.66 1167.92 748.147 1298.55 718.662V718.662" stroke="#D92848" stroke-width="0.653416"/>
<path d="M336.84 -68.5501L334.218 -41.4778C315.237 154.53 513.466 299.053 694.274 221.029L720.258 209.816C890.206 136.479 1076.26 273.176 1057.07 457.274L1050.36 521.657C1036.48 654.859 1157.47 762.346 1288.11 732.862V732.862" stroke="#D92848" stroke-width="0.653416"/>
<path d="M326.398 -54.3509L323.776 -27.2786C304.795 168.729 503.023 313.252 683.832 235.229L709.816 224.016C879.764 150.679 1065.82 287.375 1046.63 471.474L1039.92 535.856C1026.04 669.058 1147.03 776.545 1277.67 747.061V747.061" stroke="#D92848" stroke-width="0.653416"/>
<path d="M315.956 -40.1537L313.334 -13.0813C294.353 182.926 492.582 327.449 673.39 249.426L699.374 238.213C869.322 164.876 1055.38 301.573 1036.19 485.671L1029.48 550.053C1015.59 683.256 1136.59 790.743 1267.23 761.258V761.258" stroke="#D92848" stroke-width="0.653416"/>
<path d="M305.508 -25.9554L302.887 1.11695C283.906 197.124 482.134 341.648 662.942 263.624L688.927 252.411C858.874 179.074 1044.93 315.771 1025.74 499.869L1019.03 564.251C1005.15 697.454 1126.14 804.941 1256.78 775.456V775.456" stroke="#D92848" stroke-width="0.653416"/>
</g>
</svg>
