<svg width="69" height="69" viewBox="0 0 69 69" fill="none" xmlns="http://www.w3.org/2000/svg">
<g clip-path="url(#clip0_1901_38)">
<path d="M39.6 41.5121C41.8023 48.0391 43.2832 54.7877 44.016 61.6371C40.9577 62.7079 37.7401 63.2532 34.4998 63.25C28.7993 63.2588 23.2261 61.5649 18.4946 58.3855C20.6993 54.3002 23.704 50.7005 27.3295 47.8011C30.955 44.9017 35.1271 42.7619 39.5971 41.5093L39.6 41.5121ZM62.0221 42.8433C59.9692 49.5887 55.5146 55.3474 49.5015 59.0295C48.6976 52.7115 47.292 46.4847 45.304 40.434C50.9901 39.8464 56.7333 40.6741 62.0221 42.8433ZM34.9166 30.1444C35.8711 32.0936 36.7653 34.0831 37.5904 36.1043C27.6331 39.0225 19.1829 45.6647 13.9953 54.6509C11.0802 51.6638 8.84478 48.0823 7.44201 44.1514C6.03924 40.2204 5.5022 36.0328 5.86764 31.8751C15.4788 33.9106 25.6189 33.3184 34.9166 30.1444ZM56.6948 16.2265C61.4847 22.0761 63.7961 29.5675 63.1348 37.099C56.8103 34.7185 49.9909 33.9575 43.2973 34.8853C42.3732 32.5499 41.3614 30.2502 40.2641 27.991C46.4233 25.1226 51.995 21.1332 56.6948 16.2265ZM20.8895 9.17126C25.1859 14.0445 28.9719 19.3449 32.1883 24.9895C24.0285 27.5884 15.332 28.0145 6.95726 26.2258C9.16142 18.9212 14.1715 12.7883 20.8895 9.17126ZM34.4998 5.75001C41.3653 5.75001 47.6701 8.15638 52.6123 12.1728C48.3327 16.661 43.2401 20.2961 37.6048 22.885C34.4308 17.2034 30.7143 11.8424 26.5073 6.87701C29.1052 6.12755 31.7959 5.74815 34.4998 5.75001Z" fill="white"/>
</g>
<defs>
<clipPath id="clip0_1901_38">
<rect width="69" height="69" fill="white"/>
</clipPath>
</defs>
</svg>
