<svg width="85" height="85" viewBox="0 0 85 85" fill="none" xmlns="http://www.w3.org/2000/svg">
<path d="M42.5002 7.08301C37.8492 7.08301 33.2437 7.99909 28.9468 9.77894C24.6498 11.5588 20.7455 14.1676 17.4568 17.4563C10.8149 24.0982 7.0835 33.1066 7.0835 42.4997C7.0835 58.1538 17.2481 71.4351 31.3085 76.1455C33.0793 76.4288 33.646 75.3309 33.646 74.3747V68.3893C23.8356 70.5143 21.746 63.6434 21.746 63.6434C20.1168 59.5351 17.8147 58.4372 17.8147 58.4372C14.5918 56.2413 18.0627 56.3122 18.0627 56.3122C21.6043 56.5601 23.4814 59.9601 23.4814 59.9601C26.5627 65.3434 31.7689 63.7497 33.7877 62.8997C34.1064 60.5976 35.0272 59.0393 36.0189 58.1538C28.1564 57.2684 19.9043 54.2226 19.9043 40.7288C19.9043 36.7976 21.2502 33.6455 23.5522 31.1309C23.1981 30.2455 21.9585 26.5622 23.9064 21.7809C23.9064 21.7809 26.8814 20.8247 33.646 25.3934C36.4439 24.6143 39.4897 24.2247 42.5002 24.2247C45.5106 24.2247 48.5564 24.6143 51.3543 25.3934C58.1189 20.8247 61.0939 21.7809 61.0939 21.7809C63.0418 26.5622 61.8022 30.2455 61.4481 31.1309C63.7502 33.6455 65.096 36.7976 65.096 40.7288C65.096 54.258 56.8085 57.233 48.9106 58.1184C50.1856 59.2163 51.3543 61.3768 51.3543 64.6705V74.3747C51.3543 75.3309 51.921 76.4643 53.7272 76.1455C67.7877 71.3997 77.9168 58.1538 77.9168 42.4997C77.9168 37.8487 77.0008 33.2432 75.2209 28.9463C73.441 24.6494 70.8323 20.7451 67.5435 17.4563C64.2548 14.1676 60.3505 11.5588 56.0535 9.77894C51.7566 7.99909 47.1511 7.08301 42.5002 7.08301Z" fill="white"/>
</svg>
