<svg width="63" height="63" viewBox="0 0 63 63" fill="none" xmlns="http://www.w3.org/2000/svg">
<path fill-rule="evenodd" clip-rule="evenodd" d="M2.625 8.11536C2.625 6.85607 3.13332 5.64835 4.03814 4.7579C4.94295 3.86745 6.17015 3.36719 7.44975 3.36719H55.545C56.1791 3.36617 56.8072 3.48826 57.3934 3.72645C57.9795 3.96464 58.5121 4.31427 58.9608 4.75531C59.4094 5.19636 59.7653 5.72015 60.0079 6.29672C60.2506 6.87328 60.3753 7.49129 60.375 8.11536V55.4472C60.3757 56.0714 60.2513 56.6896 60.009 57.2664C59.7667 57.8433 59.4112 58.3674 58.9628 58.8089C58.5144 59.2504 57.982 59.6006 57.396 59.8393C56.81 60.0781 56.1819 60.2009 55.5476 60.2005H7.44975C6.81593 60.2005 6.18833 60.0776 5.60279 59.8388C5.01726 59.6001 4.48526 59.2501 4.03721 58.8089C3.58916 58.3677 3.23382 57.844 2.99151 57.2676C2.7492 56.6912 2.62466 56.0735 2.625 55.4498V8.11536ZM25.4835 25.0362H33.3034V28.9009C34.4321 26.6792 37.3196 24.6797 41.6587 24.6797C49.9774 24.6797 51.9488 29.1049 51.9488 37.2244V52.2645H43.5304V39.074C43.5304 34.4499 42.4016 31.8407 39.5351 31.8407C35.5583 31.8407 33.9045 34.6539 33.9045 39.074V52.2645H25.4835V25.0362ZM11.046 51.9106H19.467V24.6797H11.046V51.908V51.9106ZM20.6719 15.7982C20.6878 16.5078 20.5595 17.2133 20.2945 17.8734C20.0296 18.5335 19.6333 19.1349 19.129 19.6423C18.6247 20.1496 18.0225 20.5527 17.3577 20.828C16.6929 21.1032 15.979 21.2449 15.2578 21.2449C14.5366 21.2449 13.8227 21.1032 13.1579 20.828C12.4932 20.5527 11.891 20.1496 11.3866 19.6423C10.8823 19.1349 10.4861 18.5335 10.2211 17.8734C9.95617 17.2133 9.82787 16.5078 9.84375 15.7982C9.87492 14.4054 10.459 13.08 11.471 12.1058C12.4829 11.1316 13.8422 10.5861 15.2578 10.5861C16.6734 10.5861 18.0327 11.1316 19.0447 12.1058C20.0566 13.08 20.6407 14.4054 20.6719 15.7982Z" fill="white"/>
</svg>
